<svg width="19" height="18" viewBox="0 0 19 18" fill="none" xmlns="http://www.w3.org/2000/svg">
<g clip-path="url(#clip0_475_514)">
<path d="M9.52238 5.62402H9.65386C9.67738 5.67346 9.68586 5.72902 9.73786 5.75706C9.9947 5.76418 9.91386 5.74466 10.2082 6.04002H10.8042C10.8931 6.08038 10.9185 6.20502 11.0355 6.18454C11.1189 6.2991 11.3235 6.29938 11.3251 6.49554C11.3253 6.52354 11.3766 6.5509 11.4043 6.57858C11.359 6.70486 11.2528 6.78206 11.1641 6.87702C11.1346 6.92414 11.0393 6.84162 11.0365 6.92938C11.0338 7.01438 10.9497 6.9681 10.9201 7.01818C10.8994 7.0531 10.8317 7.06022 10.7841 7.08014L10.7312 7.0343C10.7088 7.12154 10.6255 7.13494 10.5627 7.1703C10.5173 7.17678 10.5107 7.10666 10.4407 7.13558L10.3264 7.27798C10.2795 7.2399 10.2513 7.19606 10.2126 7.21962C10.1119 7.28102 10.0157 7.3501 9.91858 7.41734C9.81457 7.48747 9.68966 7.51978 9.5647 7.5089C9.4737 7.49714 9.4069 7.6059 9.30202 7.51978V7.70542C9.2503 7.75946 9.16402 7.7023 9.12526 7.8037C9.10422 7.6611 8.92402 7.7369 8.90642 7.60146C8.8323 7.63654 8.7561 7.68682 8.69686 7.57586C8.68266 7.55154 8.71658 7.5487 8.72486 7.5281C8.72278 7.48238 8.68338 7.50614 8.65986 7.49722C8.61186 7.44922 8.63282 7.35466 8.73338 7.16886C8.5129 7.02958 8.42326 6.78486 8.28058 6.59194C8.29046 6.43766 8.38306 6.34146 8.51878 6.2821C8.56087 6.26976 8.60381 6.26054 8.64726 6.2545C8.76042 6.22418 8.8719 6.18018 8.99494 6.1825C9.2137 6.1865 9.27558 6.13102 9.34434 5.92038C9.3783 5.81634 9.3875 5.6965 9.52238 5.62402Z" fill="#212121"/>
<path d="M15.7725 14.3764C15.6405 14.4582 15.5107 14.482 15.4303 14.5878C15.4014 14.6225 15.3605 14.6453 15.3157 14.6516C15.1637 14.6847 15.0628 14.8281 14.8993 14.8391C14.8699 14.841 14.8437 14.8907 14.8161 14.9184C14.6477 14.9026 14.4906 15.002 14.3201 14.967C14.2761 14.9579 14.227 14.986 14.1866 14.9496C14.0774 14.8514 13.9417 14.8183 13.8026 14.8022C13.676 14.7875 13.6071 14.6965 13.5266 14.6182C13.5115 14.5685 13.5556 14.4816 13.4379 14.4948V14.2784C13.5633 14.1187 13.7423 14.0526 13.9529 14.0224C14.1546 13.9893 14.3527 13.9378 14.5449 13.8684C14.59 13.8525 14.6315 13.8277 14.6668 13.7954C14.7022 13.7632 14.7308 13.7242 14.7508 13.6808C14.881 13.4221 14.9884 13.1525 15.0719 12.8752C15.1374 12.6672 15.1332 12.6657 15.3107 12.5712C15.4387 12.6032 15.3871 12.7188 15.4047 12.7901L15.5443 12.6505C15.6088 12.6985 15.6411 12.7382 15.6476 12.798C15.7196 12.8009 15.795 12.8409 15.8531 12.7482C15.8931 12.8373 15.8303 12.9453 15.9631 12.9922L16.0741 12.8416C16.1328 12.9088 16.0811 12.9787 16.1203 13.0313C16.1649 13.0593 16.1907 13.029 16.2176 12.9993C16.2285 13.0063 16.2438 13.0107 16.2496 13.0206C16.4025 13.2867 16.3634 13.5463 16.2159 13.7984C16.1408 13.9227 16.0457 14.0338 15.9346 14.1273C15.8579 14.1931 15.8016 14.2796 15.7725 14.3764Z" fill="#212121"/>
<path d="M12.8573 10.9204C12.797 10.9264 12.7395 10.9535 12.7097 10.8799C12.6373 10.933 12.5841 11.0395 12.4789 10.9412C12.4737 10.9354 12.4673 10.9309 12.4601 10.9281C12.4529 10.9252 12.4452 10.9241 12.4375 10.9248C12.4298 10.9255 12.4223 10.9281 12.4158 10.9322C12.4093 10.9363 12.4038 10.9419 12.3998 10.9486C12.3651 10.9961 12.3122 10.9609 12.2694 10.9827C12.2052 11.1867 12.0421 11.3134 11.884 11.4415C11.8643 11.4575 11.8339 11.4864 11.8112 11.4866C11.6024 11.4885 11.3933 11.5063 11.1849 11.4781C11.1237 11.3996 10.9885 11.5 10.9449 11.3789C10.8615 11.3745 10.7804 11.3495 10.7089 11.3061C10.6307 11.2638 10.5616 11.205 10.4849 11.1677C10.3669 11.1102 10.3033 11.0157 10.2446 10.9117C10.2056 10.8427 10.1766 10.7681 10.142 10.694C10.182 10.6174 10.2127 10.534 10.2868 10.4745C10.3269 10.4419 10.3737 10.4185 10.4238 10.4061C10.5639 10.3626 10.694 10.2918 10.8067 10.1978C11.0877 9.97995 11.3552 9.74683 11.6234 9.51431C11.6759 9.46879 11.7403 9.45551 11.7959 9.42291C11.8403 9.45583 11.8933 9.47927 11.8775 9.54691C11.9522 9.59299 12.0353 9.53979 12.1055 9.58023C12.1115 9.64707 12.0329 9.58135 12.0315 9.64703C12.0897 9.68171 12.1658 9.64819 12.2355 9.66331C12.2671 9.71347 12.3312 9.73531 12.3515 9.80155C12.3681 9.85591 12.4411 9.92403 12.4261 9.95115C12.3866 10.0224 12.4565 10.0643 12.4449 10.1232C12.4332 10.182 12.456 10.2592 12.4261 10.3017C12.3914 10.3508 12.4687 10.408 12.3901 10.4422C12.4758 10.4965 12.5526 10.5796 12.6387 10.5905C12.7327 10.6025 12.7351 10.7582 12.8577 10.6838L12.8573 10.9204Z" fill="#212121"/>
<path d="M6.74602 12.861C6.63294 12.9161 6.58602 13.0589 6.44474 13.0977C6.39766 12.9488 6.63906 12.9233 6.56434 12.7824C6.49941 12.7378 6.43011 12.6998 6.3575 12.6692C6.32983 12.6611 6.30458 12.6464 6.28401 12.6262C6.26344 12.606 6.24819 12.5811 6.23962 12.5536C6.20322 12.4593 6.13905 12.3783 6.05562 12.3213C6.0526 12.2678 6.05299 12.2142 6.05678 12.1607C6.07206 12.0421 6.10142 11.932 6.19526 11.8422C6.42862 11.6187 6.68798 11.4431 7.00042 11.3485C7.07585 11.3183 7.14844 11.2815 7.21734 11.2384C7.22814 11.1364 7.29094 11.0392 7.28406 10.9197C7.28457 10.8834 7.29751 10.8484 7.32072 10.8206C7.34393 10.7927 7.37601 10.7737 7.41158 10.7666C7.45762 10.7576 7.49866 10.7231 7.55842 10.6913V10.9973L7.7331 10.8249C8.0131 10.9915 8.21038 11.1993 8.26754 11.5199L8.1719 11.5537V11.7489C8.0485 11.8421 8.03706 11.987 7.98858 12.1049C7.93425 12.25 7.85326 12.3836 7.74978 12.4989C7.6561 12.5983 7.54058 12.6785 7.48202 12.8099C7.46563 12.8461 7.43649 12.8751 7.40014 12.8912C7.27214 12.9363 7.18834 13.0305 7.10922 13.1454C7.09462 13.1054 7.08477 13.0782 7.0655 13.0254C7.03413 13.1263 7.0155 13.2011 6.91626 13.2504C6.7951 13.3104 6.75226 13.2401 6.68918 13.1824C6.65922 13.2148 6.63454 13.2471 6.58854 13.2224C6.58322 13.2094 6.5697 13.1929 6.5735 13.1831C6.6016 13.0975 6.6527 13.0212 6.72122 12.9627C6.75234 12.9378 6.77774 12.9089 6.74602 12.861Z" fill="#212121"/>
<path d="M10.6856 2.89292C10.656 2.88092 10.6531 2.84744 10.614 2.86492C10.6005 2.97652 10.6393 3.10396 10.538 3.2198C10.498 3.23448 10.4087 3.21284 10.3839 3.29224C10.3639 3.35596 10.3431 3.40424 10.2807 3.4136C10.2087 3.4124 10.2632 3.31844 10.1971 3.31916C10.1325 3.31956 10.1151 3.38344 10.0717 3.4124C10.0501 3.3988 10.0379 3.37268 10.0492 3.35484C10.082 3.3032 10.118 3.25512 10.0831 3.19056C10.0325 3.14688 10.0082 3.21116 9.97069 3.21856C9.96057 3.21201 9.95336 3.20181 9.95056 3.19009C9.94776 3.17836 9.94959 3.16601 9.95566 3.1556C10.0477 2.97996 10.0837 2.78616 10.1522 2.6036C10.0185 2.52541 9.8806 2.45477 9.73906 2.392C9.58834 2.31732 9.48609 2.204 9.35693 2.092H9.15469C9.15373 1.97344 9.28953 1.94224 9.26173 1.81048C9.19221 1.76248 9.17434 1.93848 9.08786 1.91048C9.06594 1.89724 9.05842 1.87744 9.06342 1.84008C9.1917 1.75752 9.35614 1.74928 9.49854 1.68008C9.6501 1.60632 9.82498 1.59748 9.98937 1.56056C10.1603 1.52212 10.3265 1.55748 10.5011 1.52796C10.6246 1.43312 10.6032 1.26796 10.6565 1.1342C10.7121 0.994557 10.7735 0.862837 10.8897 0.760997C10.9332 0.722797 10.974 0.739757 11.0232 0.743917C11.0308 0.814477 10.9061 0.824357 10.951 0.917277L11.1303 0.830437C11.1795 0.833357 11.1753 0.866437 11.1748 0.897357C11.402 0.949077 11.4412 0.973957 11.5223 1.20968C11.5427 1.26894 11.5525 1.3313 11.5514 1.39396C11.5482 1.4798 11.5506 1.56596 11.5506 1.65052C11.5678 1.68524 11.6062 1.66804 11.6374 1.68988V2.04188C11.4597 2.10292 11.4189 2.29208 11.3167 2.43064C11.272 2.49144 11.239 2.5614 11.1109 2.5774C11.1724 2.50916 11.2275 2.46996 11.2499 2.417C11.2716 2.36576 11.3312 2.32592 11.3139 2.26332C11.3003 2.23812 11.2899 2.23688 11.2779 2.25356C11.2104 2.34956 11.1593 2.46156 11.0339 2.50008C11.0392 2.5874 11.0089 2.57344 10.9657 2.52312C10.9163 2.55688 10.9474 2.60688 10.9408 2.64868C10.9359 2.67988 10.9392 2.70756 10.8931 2.7102C10.7809 2.7166 10.7569 2.828 10.6856 2.89292Z" fill="#212121"/>
<path d="M6.33642 6.18446C6.3467 6.28046 6.33114 6.34302 6.25022 6.37306C6.18738 6.3723 6.1699 6.30846 6.1265 6.27942C6.07134 6.3371 6.01642 6.34638 5.9491 6.29162C5.89389 6.2518 5.8551 6.1932 5.84002 6.12682C5.82802 6.01282 5.75694 5.94974 5.6843 5.88554C5.55081 5.76519 5.44797 5.61473 5.3843 5.44666C5.36649 5.41112 5.35789 5.37168 5.35929 5.33196C5.36069 5.29223 5.37204 5.2535 5.3923 5.2193C5.42294 5.1517 5.47008 5.09288 5.52939 5.04824C5.58869 5.0036 5.65825 4.97457 5.7317 4.96382C5.8337 4.94598 5.9291 4.88974 6.03354 4.92006C6.05722 4.87882 6.09354 4.8649 6.10438 4.82054C6.16378 4.58899 6.25264 4.36601 6.36878 4.15706C6.44702 4.01258 6.51454 4.00358 6.65998 4.08418C6.75086 4.13454 6.84146 4.17518 6.9211 4.24918C7.01947 4.33017 7.09433 4.43606 7.13786 4.55582C7.19954 4.6993 7.23134 4.85384 7.23134 5.01002C7.23062 5.08274 7.19914 5.16522 7.27482 5.22686C7.2863 5.23622 7.28386 5.27486 7.27526 5.29486C7.2161 5.42962 7.24378 5.58482 7.1613 5.71694C7.0691 5.86462 6.98066 6.01518 6.84102 6.12006C6.79043 6.16426 6.72518 6.188 6.65802 6.18666C6.55806 6.17822 6.4567 6.18446 6.33642 6.18446Z" fill="#212121"/>
<path d="M3.84826 8.82673C3.84826 8.88273 3.83154 8.93805 3.8511 8.95797C3.94634 9.05517 3.82246 9.13481 3.8391 9.22289C3.72918 9.32689 3.6963 9.47957 3.60542 9.59445C3.55454 9.65877 3.50142 9.72245 3.39466 9.71201C3.36115 9.71246 3.32814 9.72011 3.29785 9.73443C3.26756 9.74876 3.2407 9.76943 3.2191 9.79505C3.17146 9.76005 3.12182 9.72901 3.05974 9.76705C3.0535 9.80529 3.11606 9.81673 3.09102 9.87309C3.00626 9.90081 2.91162 9.93113 2.81746 9.96285C2.72146 9.99513 2.59666 10.0028 2.5379 10.0688C2.46934 10.1458 2.38242 10.1958 2.3083 10.2787C2.24663 10.2406 2.17678 10.2178 2.10454 10.2121C2.13966 10.1508 2.22302 10.1345 2.19482 10.0349L2.0831 10.1251C2.07286 10.1193 2.0653 10.1097 2.06199 10.0984C2.05869 10.0871 2.0599 10.0749 2.06538 10.0645C2.08741 10.0444 2.10245 10.0178 2.10831 9.98857C2.11418 9.95934 2.11056 9.929 2.09798 9.90197C1.96462 9.89877 1.82942 9.84577 1.69398 9.78117C1.65398 9.70977 1.73774 9.65077 1.73882 9.58937C1.68194 9.54537 1.65442 9.57237 1.6263 9.60441C1.5479 9.57741 1.52018 9.50677 1.5537 9.44873C1.59978 9.36873 1.63674 9.28117 1.73842 9.23361C2.03326 9.09561 2.31442 8.92937 2.61042 8.80297C2.74054 8.58189 2.71654 8.29305 2.93126 8.11121H3.07058C3.09314 8.17957 3.14218 8.19085 3.21226 8.21121C3.33546 8.24721 3.47022 8.30637 3.51666 8.44521C3.54838 8.54005 3.62638 8.59941 3.66538 8.68861C3.68039 8.7261 3.70536 8.75878 3.73759 8.78312C3.76982 8.80746 3.80808 8.82254 3.84826 8.82673Z" fill="#212121"/>
<path d="M9.88533 16.327C9.85313 16.3032 9.84397 16.2762 9.83557 16.2779L9.61937 16.5045C9.61281 16.547 9.70969 16.4885 9.71329 16.5445C9.57057 16.6276 9.37805 16.6582 9.35949 16.8855L9.42441 16.9504C9.46441 16.8963 9.50409 16.8422 9.54477 16.7869C9.59401 16.8397 9.57893 16.8689 9.54765 16.8999C9.47774 16.9791 9.37974 17.028 9.27441 17.0361C9.19481 17.0405 9.12398 17.1068 9.03394 17.0736C9.02194 17.1075 9.01261 17.1347 9.00293 17.1624C8.97289 17.1807 8.97093 17.143 8.93765 17.133C8.93153 17.2103 8.84829 17.213 8.80753 17.2635C8.73213 17.2326 8.67457 17.1439 8.59553 17.1568C8.55801 17.1629 8.50105 17.0808 8.47553 17.1808L8.36561 17.0395H8.17333C8.05817 16.9855 8.02505 16.884 7.98033 16.7915C7.99493 16.7672 8.00873 16.7442 8.02209 16.722L7.93261 16.6325C7.93613 16.5659 7.98169 16.5147 8.01621 16.4605C8.05073 16.4064 8.1057 16.4143 8.15858 16.4357C8.16142 16.4763 8.09282 16.4997 8.13686 16.5565C8.24198 16.4859 8.37045 16.468 8.48337 16.4132C8.56273 16.2028 8.55641 15.9629 8.72777 15.7836C8.75155 15.7545 8.76867 15.7205 8.77793 15.6841C8.7872 15.6477 8.78839 15.6097 8.78141 15.5728C8.77277 15.5291 8.81341 15.5303 8.84877 15.5305C8.90365 15.5952 8.85397 15.6773 8.87921 15.7474C9.03353 15.681 9.08381 15.5883 9.07921 15.4266C9.07773 15.3763 9.12349 15.3251 9.10041 15.2589C9.06009 15.2509 9.06809 15.2831 9.06041 15.3069C9.04997 15.3268 9.03647 15.3449 9.02041 15.3606C9.01216 15.3735 8.99955 15.3831 8.98487 15.3875C8.97019 15.3919 8.95441 15.3909 8.94041 15.3846C8.94965 15.1483 9.01754 15.0499 9.22842 14.968C9.28042 15.0183 9.22517 15.0889 9.26345 15.146C9.31021 15.1387 9.32641 15.0912 9.36777 15.0624C9.39425 15.1113 9.40637 15.1713 9.46209 15.2011C9.50809 15.2185 9.52809 15.1768 9.56553 15.1483C9.72825 15.2159 9.85753 15.3083 9.86317 15.5148C9.86513 15.5862 9.94789 15.6628 9.90273 15.7268C9.84673 15.8057 9.93041 15.8569 9.91041 15.9268C9.88241 16.0237 9.97841 16.1065 9.95817 16.2121C9.94554 16.2567 9.92024 16.2966 9.88533 16.327Z" fill="#212121"/>
<path d="M14.9617 4.91644H15.0969C15.1495 4.96592 15.0978 5.03584 15.1302 5.09244C15.2113 5.1362 15.2291 5.04844 15.2771 5.01832C15.288 5.02279 15.2985 5.0284 15.3083 5.03504C15.3616 5.07932 15.3923 5.14044 15.4514 5.18596C15.6438 5.33428 15.6808 5.56108 15.5674 5.80512C15.5154 5.91712 15.4664 6.04164 15.3805 6.12296C15.3097 6.18992 15.3269 6.2772 15.2721 6.34088C15.2187 6.40292 15.1511 6.44668 15.1125 6.53188C15.0675 6.63116 14.9259 6.65424 14.8569 6.74812C14.7317 6.71968 14.7126 6.82584 14.6637 6.8972C14.6369 6.92972 14.6073 6.95989 14.5753 6.98736C14.5085 6.97424 14.4457 6.9334 14.3676 6.93032C14.3012 6.92768 14.2383 6.8444 14.1673 6.92568C14.0664 6.83708 13.9576 6.95192 13.8652 6.91888C13.7635 6.88248 13.6465 6.89316 13.5559 6.8118C13.5244 6.78356 13.4533 6.7954 13.4004 6.79612C13.3792 6.79791 13.358 6.79285 13.3398 6.78169C13.3217 6.77053 13.3077 6.75386 13.2997 6.73412C13.2692 6.64916 13.3855 6.64656 13.3247 6.57812C13.2998 6.53412 13.2419 6.5824 13.2041 6.54696C13.1904 6.51218 13.1885 6.47386 13.1986 6.43788C13.2706 6.39978 13.3493 6.37622 13.4303 6.36856C13.5555 6.36456 13.6583 6.28056 13.7735 6.23704C14.0121 6.1543 14.2291 6.01929 14.4088 5.84188C14.4701 5.77687 14.5201 5.70208 14.5568 5.6206C14.638 5.45074 14.7211 5.28174 14.806 5.1136C14.8398 5.03544 14.8935 4.96747 14.9617 4.91644Z" fill="#212121"/>
<path d="M1.3341 4.54193L1.43238 4.63473C1.60438 4.62857 1.64618 4.47741 1.68138 4.36773C1.78334 4.05005 1.90994 3.74177 2.0169 3.42633C2.04762 3.33573 2.07358 3.31641 2.2795 3.21857C2.30278 3.32681 2.36386 3.37033 2.4835 3.37521C2.55886 3.37829 2.65286 3.45057 2.6975 3.51869C2.7341 3.57449 2.81874 3.63293 2.80642 3.67717C2.78722 3.74617 2.89682 3.79053 2.82362 3.85745C2.8131 3.86705 2.87242 3.90489 2.86298 3.95001C2.84846 4.01973 2.9595 4.07953 2.90506 4.13801C2.83746 4.21061 2.94242 4.25637 2.9095 4.31429C2.90665 4.32173 2.90665 4.32996 2.9095 4.33741C2.9375 4.42281 2.75578 4.42941 2.83666 4.54961C2.8651 4.59201 2.78746 4.66801 2.75298 4.72757C2.70977 4.79816 2.65815 4.86325 2.59926 4.92141C2.54698 4.97625 2.49342 5.02893 2.40846 5.03941C2.33646 4.93941 2.26018 5.10365 2.17894 5.05965C2.1595 5.21165 1.9707 5.20041 1.91978 5.33565C1.90726 5.37281 1.96482 5.38533 1.97058 5.42517C1.96975 5.44473 1.96397 5.46377 1.95376 5.48049C1.94356 5.4972 1.92927 5.51105 1.91225 5.52073C1.89522 5.53041 1.87601 5.5356 1.85643 5.53582C1.83685 5.53603 1.81753 5.53127 1.8003 5.52197C1.69042 5.46917 1.57826 5.49081 1.4639 5.47597C1.46101 5.37817 1.42064 5.28523 1.35114 5.21637C1.3087 5.17845 1.29334 5.12061 1.31566 5.09333C1.42126 4.96429 1.31922 4.85241 1.29434 4.73733C1.27178 4.63413 1.26134 4.63637 1.3341 4.54193Z" fill="#212121"/>
<path d="M16.0121 9.58945L16.1659 9.43565C16.5025 9.38141 16.8388 9.33205 17.1859 9.42365C17.2875 9.40045 17.335 9.30073 17.3619 9.21757C17.3971 9.10869 17.4881 9.03913 17.52 8.93097C17.5438 8.85049 17.6523 8.87097 17.6869 8.80585C17.7636 8.83737 17.816 8.86665 17.7916 8.95749C17.9 8.95129 17.9913 8.94993 18.0504 9.04249C18.0961 9.11393 18.2128 9.10569 18.2337 9.22149C18.2484 9.30281 18.3131 9.37505 18.3519 9.44473C18.2479 9.59793 18.3965 9.72333 18.389 9.86301C18.3574 9.95465 18.3279 10.0426 18.1909 10.0486C18.1138 10.0519 18.0326 10.1206 17.9663 10.1756C17.8806 10.2466 17.806 10.2473 17.7195 10.1746C17.7159 10.2893 17.6155 10.3085 17.5391 10.354C17.5216 10.3442 17.4969 10.318 17.4741 10.3195C17.3213 10.3302 17.1798 10.2489 17.0381 10.2494C16.9006 10.2561 16.7639 10.226 16.6419 10.1623C16.5208 10.0921 16.3799 10.0778 16.2643 9.99381C16.2155 9.95833 16.1712 9.94105 16.1506 9.87577C16.1199 9.77941 16.0074 9.72233 16.0121 9.58945Z" fill="#212121"/>
</g>
<defs>
<clipPath id="clip0_475_514">
<rect width="18" height="18" fill="white" transform="translate(0.833336)"/>
</clipPath>
</defs>
</svg>
