<svg width="15" height="12" viewBox="0 0 15 12" fill="none" xmlns="http://www.w3.org/2000/svg">
<path d="M14.9382 4.92257C14.9382 4.91876 14.9284 4.9152 14.919 4.90863C14.9152 4.93232 14.9118 4.95322 14.9082 4.97597C14.8708 4.94986 14.8442 4.96858 14.8399 4.9944C14.8339 5.03009 14.8298 5.05575 14.7847 5.07015C14.7534 5.08013 14.7406 5.11575 14.6952 5.12067C14.6606 5.12436 14.6319 5.16272 14.5975 5.18091C14.5719 5.19448 14.5434 5.20288 14.5138 5.20553C14.4843 5.20817 14.4545 5.205 14.4264 5.19622C14.4727 5.17774 14.5163 5.16471 14.5097 5.11347C14.5089 5.10675 14.5214 5.0977 14.5292 5.0912C14.5987 5.03345 14.6678 4.97532 14.7388 4.91895C14.7592 4.90186 14.7829 4.88835 14.8087 4.87913C14.8724 4.85888 14.8705 4.80454 14.8861 4.76132C14.8917 4.74574 14.8578 4.71425 14.8653 4.70448C14.9059 4.65135 14.8833 4.59807 14.8755 4.54452C14.8723 4.52256 14.866 4.50094 14.8634 4.47893C14.8638 4.44937 14.8611 4.41983 14.855 4.39076C14.8275 4.31887 14.8126 4.24357 14.8107 4.16756C14.8095 4.06056 14.8151 3.95439 14.7927 3.84596C14.773 3.75087 14.7562 3.65415 14.7393 3.55796C14.7133 3.40916 14.654 3.27183 14.5995 3.13143C14.5663 3.04587 14.5057 2.97668 14.4622 2.89788C14.4329 2.84388 14.4001 2.79152 14.3638 2.74109C14.2358 2.56625 14.0747 2.41515 13.9247 2.25629C13.8776 2.20642 13.8107 2.17229 13.7583 2.12585C13.6191 1.99771 13.4616 1.88678 13.29 1.79597C13.2418 1.77154 13.1954 1.74399 13.15 1.71548C13.107 1.68848 13.0665 1.65836 13.0249 1.6296C12.9521 1.6488 12.9297 1.58016 12.8819 1.55693C12.8064 1.52024 12.7386 1.46813 12.6594 1.43453C12.5679 1.39565 12.4654 1.37144 12.3851 1.31921C12.2448 1.22801 12.0779 1.19588 11.9257 1.13309C11.7993 1.08101 11.6686 1.0327 11.5366 0.989261C11.4331 0.955253 11.3411 0.893261 11.2231 0.900293C11.2138 0.900845 11.1951 0.890525 11.1955 0.886349C11.1996 0.841685 11.1397 0.861965 11.1302 0.832685C11.0385 0.825893 10.9569 0.787085 10.8714 0.762461C10.7853 0.737621 10.6927 0.737717 10.6101 0.698069C10.566 0.680589 10.518 0.672578 10.4699 0.674669C10.3959 0.674405 10.3283 0.633869 10.2527 0.650501C10.1936 0.609701 10.1243 0.637349 10.061 0.626981C9.99802 0.613307 9.93367 0.605521 9.86896 0.603749C9.69616 0.607349 9.52314 0.602093 9.35037 0.605765C9.17664 0.609461 9.00221 0.589133 8.82909 0.626093C8.75074 0.642893 8.66389 0.608861 8.58701 0.650501C8.46013 0.644981 8.33901 0.681221 8.21544 0.692621C8.09864 0.703397 7.98877 0.747821 7.86994 0.741581C7.79584 0.788309 7.70376 0.789053 7.62194 0.804389C7.5328 0.821069 7.44514 0.846917 7.35362 0.858077C7.26344 0.869069 7.1769 0.903413 7.08322 0.900989C7.03858 0.936749 6.9784 0.929189 6.92637 0.944501C6.86989 0.961133 6.8037 0.952733 6.7489 0.971813C6.69248 0.991469 6.63282 0.978509 6.58242 0.995093C6.51392 1.01765 6.44293 1.02053 6.37442 1.03712C6.302 1.05464 6.2281 1.06716 6.15525 1.08339C6.07128 1.10211 5.98626 1.11843 5.90432 1.14291C5.67472 1.21152 5.4452 1.28024 5.21714 1.35336C4.97366 1.42824 4.73469 1.5145 4.5012 1.6118C4.18234 1.74924 3.86872 1.89701 3.57893 2.08335C3.41466 2.18895 3.2552 2.29964 3.10053 2.41541C3.00216 2.48914 2.9117 2.57189 2.8168 2.6497C2.63349 2.79996 2.46352 2.96336 2.28856 3.1208L2.31688 3.15068C2.24824 3.15756 2.21693 3.20124 2.17821 3.24092C2.07981 3.34205 1.95922 3.42452 1.87421 3.53765C1.83355 3.58839 1.78892 3.63644 1.74064 3.68144C1.69426 3.72732 1.68152 3.79839 1.60842 3.82395C1.5172 3.99478 1.35034 4.12311 1.27584 4.30335C1.14333 4.44689 1.08538 4.62828 0.97717 4.78474C0.940219 4.83041 0.908982 4.87961 0.884023 4.93145C0.849631 5.0135 0.809396 5.09347 0.76357 5.17085C0.67165 5.33537 0.616183 5.51093 0.542236 5.68066C0.506156 5.76344 0.493196 5.85192 0.465916 5.93686C0.450716 5.98414 0.422903 6.02981 0.417916 6.07767C0.41069 6.14657 0.378583 6.2101 0.369756 6.27543C0.360343 6.34484 0.33117 6.40652 0.31429 6.47223C0.305383 6.50696 0.28229 6.53734 0.287116 6.57687C0.289783 6.59919 0.25717 6.63447 0.266556 6.64496C0.30005 6.68211 0.26389 6.69296 0.246316 6.71273C0.242428 6.71885 0.239807 6.72555 0.238583 6.73251C0.210156 6.81929 0.20949 6.91028 0.19181 6.99891C0.173143 7.09215 0.189143 7.18952 0.165676 7.28544C0.149676 7.35058 0.16493 7.42155 0.16173 7.48973C0.157323 7.53123 0.15046 7.57249 0.14117 7.61333L0.217436 7.65785C0.191225 7.66839 0.166111 7.68102 0.142396 7.69558C0.12877 7.70747 0.118849 7.72236 0.113623 7.73878C0.15005 7.76537 0.10781 7.78829 0.110956 7.81287C0.114956 7.8428 0.107223 7.87424 0.11317 7.90364C0.11989 7.9369 0.0851964 7.96088 0.0894631 7.98507C0.0968764 8.02683 0.0806364 8.066 0.0769564 8.1043C0.0725297 8.15052 0.122583 8.20498 0.0618896 8.24549C0.109196 8.2945 0.0800763 8.35311 0.0856496 8.40713C0.0903163 8.45228 0.0833564 8.49833 0.0875964 8.5436C0.0912498 8.58257 0.112263 8.62145 0.109143 8.6593C0.106636 8.68961 0.0870097 8.71587 0.12661 8.7385C0.13349 8.74244 0.13085 8.76351 0.128396 8.77599C0.12573 8.7894 0.11045 8.81127 0.113863 8.81355C0.153036 8.83995 0.139463 8.87756 0.135196 8.90808C0.129276 8.95179 0.151543 8.9858 0.16677 9.02249C0.179036 9.05196 0.204903 9.07918 0.207756 9.1087C0.209543 9.12735 0.181436 9.14031 0.20197 9.17307C0.237756 9.23026 0.236636 9.30346 0.28557 9.35787C0.26981 9.43078 0.31965 9.48951 0.34157 9.55349C0.36557 9.62352 0.385916 9.69888 0.44749 9.75236C0.48045 9.78099 0.49941 9.80916 0.491623 9.85044C0.489543 9.86151 0.485916 9.87888 0.492156 9.88366C0.555809 9.9324 0.561916 10.0138 0.61749 10.0646C0.689623 10.1306 0.718823 10.2301 0.820156 10.2723C0.885596 10.3803 1.00258 10.4457 1.08888 10.5364C1.11685 10.5658 1.13928 10.6033 1.17421 10.6225C1.20808 10.6411 1.21706 10.6525 1.20989 10.6885C1.20557 10.7101 1.22973 10.7563 1.24498 10.7578C1.29426 10.7624 1.27533 10.805 1.30234 10.8223C1.36552 10.8629 1.42178 10.9121 1.48125 10.9573C1.48522 10.9603 1.49272 10.9595 1.50818 10.9621C1.51712 10.9499 1.52832 10.9345 1.53936 10.9194L1.57874 10.9543L1.48008 11.0112C1.55968 11.0124 1.62773 10.9993 1.63616 11.0744C1.68563 11.089 1.7307 11.1136 1.76786 11.1464C1.80237 11.1802 1.83498 11.2232 1.90074 11.1999C1.90389 11.1988 1.92058 11.238 1.9289 11.2373C1.95127 11.2326 1.97264 11.2246 1.99218 11.2137L2.04552 11.2881C2.05757 11.2698 2.06669 11.2561 2.07578 11.2423C2.09178 11.273 2.12338 11.2379 2.12762 11.2458C2.16546 11.3162 2.24496 11.3185 2.31162 11.3394C2.35486 11.3553 2.40125 11.363 2.44792 11.362C2.4946 11.3611 2.54056 11.3515 2.58296 11.3339C2.6073 11.343 2.61762 11.3934 2.6673 11.3688C2.66544 11.3651 2.66308 11.3617 2.66029 11.3585C2.64328 11.345 2.62869 11.3276 2.65178 11.3126C2.66954 11.3011 2.68784 11.3048 2.69445 11.332C2.6984 11.3483 2.71784 11.3616 2.736 11.3829C2.74314 11.3485 2.74741 11.3281 2.75562 11.2887L2.84141 11.3659C2.84144 11.3574 2.84325 11.3489 2.84674 11.341C2.87032 11.3014 2.90008 11.3719 2.92578 11.3383C2.92744 11.3362 2.9424 11.3393 2.94237 11.3395C2.9397 11.3798 2.97821 11.3878 2.99837 11.3743C3.04525 11.3427 3.0592 11.3784 3.0825 11.3967L3.18752 11.3545C3.21501 11.394 3.24053 11.3707 3.26856 11.3539C3.28989 11.3412 3.31256 11.3971 3.3365 11.355C3.36392 11.3916 3.38914 11.3517 3.41608 11.3521C3.5377 11.3539 3.65522 11.3227 3.77493 11.3108C3.8336 11.3051 3.84976 11.2778 3.86784 11.2409C3.91765 11.2617 3.91765 11.2617 4.04842 11.2321C4.04632 11.2124 4.04434 11.1937 4.04237 11.1752C4.06008 11.1797 4.0774 11.1853 4.09418 11.1921C4.10246 11.197 4.10969 11.2032 4.11552 11.2104C4.20085 11.1854 4.28645 11.1655 4.3481 11.1055C4.35029 11.1033 4.3556 11.1031 4.35946 11.1031C4.38446 11.1062 4.40986 11.1056 4.43464 11.1013C4.45562 11.0941 4.46789 11.0677 4.48874 11.0586C4.52047 11.0471 4.55317 11.0378 4.58653 11.0309C4.59064 11.0058 4.59394 10.9855 4.59794 10.9609L4.67104 10.9875V10.9203H4.78229C4.85845 10.8481 4.87186 10.7425 4.96453 10.6869C4.96389 10.6504 5.02904 10.6227 4.98256 10.58L4.8753 10.7034V10.5749C4.93866 10.6046 4.93874 10.5283 4.98418 10.5326C4.97811 10.5187 4.97374 10.5042 4.97117 10.4894C4.97186 10.4744 4.97435 10.4594 4.97861 10.4449L4.99304 10.445C5.00605 10.4894 5.01905 10.5337 5.03205 10.5779C5.03851 10.5741 5.04441 10.5696 5.04962 10.5645C5.09107 10.5163 5.12926 10.4659 5.164 10.4136C5.19486 10.3602 5.23041 10.3092 5.27032 10.2609C5.3265 10.1946 5.35778 10.1116 5.40701 10.0398C5.43122 10.0045 5.43314 9.98021 5.40344 9.95583C5.43377 9.93915 5.46156 9.91898 5.4861 9.89583C5.51909 9.85183 5.54944 9.80626 5.57701 9.75934C5.60682 9.71352 5.63322 9.66555 5.66722 9.62254C5.71324 9.5663 5.77947 9.52612 5.85466 9.50883C5.87379 9.50514 5.89247 9.49973 5.9104 9.49268C5.93893 9.47907 5.90754 9.45965 5.90994 9.45394C5.91909 9.43217 5.93744 9.44127 5.95768 9.45113C5.97981 9.46191 6.00714 9.43856 6.00714 9.41336C6.00256 9.38187 5.93728 9.37707 5.96448 9.32844C5.99736 9.33538 6.03717 9.35633 6.06264 9.34666C6.1213 9.32439 6.09589 9.42411 6.16072 9.3847C6.14045 9.36944 6.11248 9.3439 6.1472 9.32823C6.19296 9.30747 6.17282 9.36521 6.19397 9.37088C6.23264 9.37088 6.27368 9.38182 6.29797 9.36833C6.3353 9.3475 6.3593 9.34078 6.39664 9.36646C6.40957 9.37536 6.44093 9.3638 6.46349 9.35984C6.48035 9.35803 6.49592 9.3508 6.50732 9.33948C6.51873 9.32816 6.5252 9.31351 6.52554 9.29823C6.53869 9.31421 6.55352 9.329 6.56984 9.34241C6.59472 9.35907 6.6505 9.33471 6.64821 9.38996C6.65887 9.3923 6.66993 9.39279 6.6808 9.3914C6.69552 9.38741 6.718 9.37066 6.72106 9.37352C6.75173 9.40174 6.79098 9.38909 6.82538 9.3968C6.84773 9.40181 6.86538 9.42406 6.88712 9.44L6.90394 9.38655C6.9541 9.46369 7.03786 9.47643 7.126 9.51154L7.20093 9.44405C7.19157 9.46611 7.18418 9.4836 7.17402 9.50756C7.21581 9.53561 7.25749 9.57368 7.30789 9.59492C7.36922 9.62072 7.43856 9.63108 7.48173 9.68501C7.48483 9.68722 7.48838 9.68886 7.49218 9.68983C7.49599 9.6908 7.49996 9.69109 7.50389 9.69068C7.56229 9.68885 7.59314 9.7622 7.66056 9.73767C7.66221 9.73707 7.6701 9.75464 7.67749 9.76167C7.69336 9.77676 7.71677 9.80559 7.72666 9.80247C7.79421 9.78087 7.80917 9.84394 7.85077 9.86206C7.87744 9.87365 7.89189 9.90766 7.90872 9.92792L7.98872 9.89218C8.00327 9.91483 8.01964 9.93648 8.0377 9.95698C8.0501 9.96924 8.0584 9.99747 8.09288 9.97042C8.10861 9.95809 8.09733 10.0228 8.14157 10.0098C8.21592 10.0573 8.3125 10.0731 8.37197 10.1433C8.38434 10.1579 8.4173 10.1569 8.43429 10.17C8.46912 10.1968 8.5172 10.1862 8.5545 10.2143C8.59222 10.2397 8.6373 10.2548 8.68432 10.2577C8.70052 10.2589 8.71629 10.2631 8.73072 10.2698C8.74514 10.2766 8.75793 10.2858 8.76834 10.2971C8.85109 10.3716 8.96181 10.4155 9.07872 10.4202C9.09968 10.4218 9.13154 10.4398 9.13872 10.4331C9.17178 10.4023 9.18786 10.4324 9.21234 10.4412C9.22208 10.445 9.23257 10.4469 9.24318 10.4469C9.25379 10.4469 9.26429 10.445 9.27402 10.4412C9.33138 10.406 9.39402 10.4241 9.45429 10.4199C9.49429 10.4171 9.53464 10.4255 9.57143 10.3981C9.59277 10.3821 9.62023 10.3742 9.64794 10.3762C9.69706 10.3847 9.70061 10.3324 9.71386 10.3325C9.7713 10.3329 9.80986 10.2989 9.8569 10.2821C9.92573 10.2578 9.9912 10.2258 10.0596 10.2005C10.1267 10.1795 10.1877 10.145 10.238 10.0997C10.2972 10.0401 10.3903 10.0409 10.454 9.98837C10.5008 9.94966 10.5618 9.92494 10.6179 9.93996C10.6659 9.89705 10.7025 9.85959 10.7448 9.82865C10.7646 9.81425 10.7997 9.81713 10.8207 9.80333C10.8417 9.78953 10.8478 9.75773 10.8689 9.74638C11.0367 9.65672 11.1228 9.50607 11.2126 9.36286C11.2944 9.22709 11.3655 9.08629 11.4253 8.94152C11.4609 8.85948 11.4592 8.76579 11.5227 8.69309C11.5268 8.68841 11.5227 8.67826 11.5233 8.6707C11.5297 8.59776 11.5553 8.52752 11.5512 8.4523C11.5492 8.41534 11.5851 8.37826 11.5733 8.33672C11.5676 8.31648 11.5503 8.29736 11.5503 8.27775C11.5503 8.25814 11.5681 8.23906 11.5732 8.21876C11.5855 8.17008 11.5524 8.1259 11.5505 8.08023C11.5428 7.90503 11.5525 7.72983 11.5265 7.55424C11.5093 7.43866 11.522 7.31933 11.524 7.20171C11.5245 7.16996 11.5147 7.13825 11.5437 7.10571C11.552 7.09267 11.5566 7.07794 11.557 7.06288C11.5574 7.04783 11.5535 7.03293 11.5458 7.01957C11.5058 6.97664 11.5636 6.96692 11.5628 6.93874L11.6062 6.96701C11.5965 6.91632 11.5902 6.88301 11.583 6.8455C11.66 6.80931 11.671 6.7236 11.7256 6.66584C11.7091 6.63879 11.7599 6.61817 11.7345 6.59033C11.7318 6.58743 11.7286 6.58498 11.7173 6.57502C11.7741 6.58162 11.8002 6.55673 11.8219 6.51965C11.8538 6.45948 11.9021 6.40748 11.9621 6.36845C11.9707 6.36329 11.9724 6.34971 11.9788 6.341C12.0013 6.31076 12.0191 6.27519 12.0684 6.2738C12.0666 6.26268 12.0647 6.2516 12.0624 6.23751C12.1085 6.22251 12.1488 6.1959 12.1786 6.16085C12.2184 6.11486 12.2713 6.07939 12.3317 6.05818C12.3531 6.04752 12.3727 6.03404 12.3896 6.01817C12.3686 6.00247 12.3451 5.98976 12.3198 5.98052C12.3015 5.97728 12.2799 5.98932 12.257 5.99532C12.2554 5.93259 12.3197 5.94012 12.3462 5.91387L12.3818 5.95601C12.3903 5.94635 12.3994 5.9371 12.409 5.92832C12.4192 5.91975 12.4312 5.91286 12.4479 5.90156C12.4503 5.91474 12.4544 5.92762 12.46 5.93996C12.4692 5.94914 12.4796 5.95721 12.4911 5.96396L12.6067 5.84936C12.6087 5.84991 12.625 5.85932 12.6327 5.85531C12.6636 5.83878 12.6931 5.82017 12.721 5.79965C12.7406 5.78549 12.7542 5.7606 12.7757 5.75362C12.7988 5.74903 12.8227 5.74839 12.846 5.75172C12.8699 5.72103 12.885 5.70154 12.901 5.68097C12.9202 5.70161 12.9159 5.74258 12.958 5.72765C13.0322 5.70125 13.1106 5.69098 13.1862 5.67245C13.2281 5.66211 13.2768 5.6778 13.304 5.65762C13.3476 5.6252 13.4003 5.65551 13.4326 5.634C13.4769 5.60444 13.5203 5.6203 13.5637 5.6148C13.58 5.61272 13.6018 5.61888 13.6124 5.61137C13.6823 5.562 13.7716 5.57309 13.85 5.55075C13.9057 5.53491 13.9685 5.53844 14.0172 5.50073C14.0874 5.51432 14.137 5.4678 14.1968 5.45088C14.2077 5.44779 14.2166 5.43303 14.2261 5.43329C14.3138 5.43569 14.3798 5.37852 14.4606 5.36525C14.5145 5.3564 14.5352 5.31324 14.5756 5.29028C14.7303 5.20212 14.7558 5.20011 14.8408 5.07737C14.8443 5.07236 14.8544 5.07084 14.8615 5.06808C14.9347 5.04003 14.9403 4.98276 14.9382 4.92257ZM1.7265 6.05967C1.71441 6.11134 1.69863 6.16225 1.67928 6.21209C1.65736 6.25769 1.64762 6.30773 1.62594 6.35129C1.60098 6.40169 1.60021 6.45466 1.5797 6.50449C1.5237 6.6404 1.49824 6.78411 1.45253 6.92276C1.44917 6.93293 1.45053 6.95052 1.44429 6.95283C1.40005 6.9691 1.43096 7.01861 1.40498 7.03241C1.35208 7.06068 1.38981 7.10878 1.3645 7.14423C1.3448 7.17183 1.35024 7.214 1.3445 7.24966C1.31202 7.26149 1.29533 7.25158 1.30122 7.22086C1.3072 7.18966 1.30746 7.14944 1.32904 7.13033C1.37669 7.08809 1.3237 7.02656 1.3728 6.98924C1.34448 6.962 1.33234 6.94436 1.38954 6.93104C1.40765 6.92684 1.4325 6.87267 1.42293 6.85858C1.38309 6.79983 1.43008 6.7476 1.43496 6.69538C1.43989 6.64275 1.4645 6.5868 1.47882 6.53165C1.49441 6.47728 1.51343 6.42375 1.53581 6.37133C1.56869 6.28885 1.58058 6.19992 1.62954 6.12236C1.57576 6.06905 1.66816 6.04284 1.65952 5.99103C1.6529 5.95126 1.68909 5.90597 1.7053 5.86284C1.7228 5.81631 1.72981 5.76413 1.75797 5.72384C1.81882 5.63681 1.85586 5.54026 1.90837 5.45024C1.91901 5.43558 1.93125 5.42191 1.9449 5.40944C1.88762 5.63523 1.79498 5.84379 1.7265 6.05967ZM2.52602 5.61567C2.49909 5.68884 2.46888 5.76113 2.43701 5.8327C2.4048 5.90509 2.38256 5.9797 2.35845 6.05424C2.33384 6.13023 2.29386 6.20619 2.27202 6.28253C2.23872 6.39903 2.1925 6.51178 2.16058 6.6284C2.13714 6.71398 2.09853 6.79517 2.07738 6.88227C2.05645 6.96845 2.03784 7.05572 2.01002 7.14092C1.97284 7.2528 1.95462 7.36909 1.956 7.48587C1.95283 7.53594 1.94232 7.58542 1.92474 7.63301C1.92031 7.64354 1.9183 7.65476 1.91882 7.66601C1.91935 7.67725 1.92241 7.68829 1.92781 7.69844C1.93848 7.72258 1.91517 7.75844 1.90826 7.7894C1.89805 7.83526 1.9216 7.88151 1.88626 7.92987C1.86021 7.9656 1.8909 8.01934 1.86186 8.0684C1.83973 8.10581 1.85746 8.16236 1.84717 8.21062C1.83901 8.15873 1.81352 8.10968 1.82466 8.05642C1.82488 8.05536 1.81842 8.05234 1.81474 8.05162C1.8069 8.05008 1.79874 8.04946 1.78541 8.0478C1.79288 8.03264 1.79962 8.01848 1.80674 8.0046C1.81702 7.98972 1.82508 7.9737 1.83074 7.95694C1.83314 7.94369 1.81885 7.92814 1.82061 7.91463C1.8349 7.80394 1.87413 7.69762 1.88728 7.58583C1.89718 7.5323 1.90405 7.47835 1.90786 7.42419C1.90816 7.36932 1.92794 7.31619 1.93885 7.26392C1.95184 7.20176 1.94386 7.13768 1.96234 7.08C1.97658 7.02305 1.98414 6.96491 1.98488 6.90653C1.98592 6.86706 1.99469 6.82806 2.01077 6.79133C2.06144 6.6944 2.07893 6.58916 2.1137 6.48838C2.15104 6.38038 2.2037 6.27764 2.2153 6.16114C2.22277 6.08619 2.25989 6.01188 2.29402 5.94132C2.32816 5.87076 2.35328 5.79524 2.39229 5.72799C2.43264 5.65839 2.47762 5.5938 2.49264 5.51422C2.49653 5.49358 2.53312 5.47796 2.57605 5.44222C2.55554 5.51444 2.54426 5.56608 2.52602 5.61564V5.61567ZM6.67245 6.16846C6.66661 6.18329 6.68045 6.20446 6.68536 6.22268C6.62514 6.21987 6.65248 6.27125 6.63234 6.29134C6.5672 6.35636 6.53248 6.44139 6.45605 6.4994C6.42306 6.52443 6.40288 6.56271 6.37408 6.5928C6.35957 6.60445 6.34343 6.61433 6.32608 6.6222C6.2857 6.55692 6.31946 6.51039 6.37141 6.4867C6.41344 6.4675 6.42349 6.44556 6.44208 6.41084C6.46332 6.36904 6.4931 6.33121 6.52986 6.29931C6.59685 6.24651 6.62136 6.1706 6.67818 6.11405C6.682 6.11026 6.6744 6.0984 6.67512 6.09053C6.67512 6.08693 6.67592 6.08336 6.67747 6.08003C6.67903 6.07671 6.6813 6.07369 6.68416 6.07116C6.68785 6.06997 6.69182 6.06966 6.69568 6.07027C6.69954 6.07088 6.70316 6.07238 6.70618 6.07462C6.71126 6.0842 6.71434 6.09454 6.71528 6.10512C6.72056 6.13748 6.68133 6.146 6.67245 6.16844V6.16846ZM7.47368 5.94394C7.42874 5.98289 7.45365 6.04212 7.39802 6.08856H7.35066C7.35349 6.11945 7.35581 6.14499 7.3588 6.17777C7.34624 6.18785 7.33154 6.19552 7.3156 6.20033C7.29353 6.20091 7.27151 6.19819 7.25042 6.19229C7.22733 6.21245 7.27384 6.26468 7.22528 6.27308C7.16608 6.28333 7.21496 6.33209 7.17805 6.35285C7.14962 6.36881 7.14586 6.35086 7.13165 6.34465C7.1169 6.42562 7.1169 6.42562 7.03349 6.52428C7.00149 6.49287 7.00149 6.49297 7.03304 6.45617C7.03776 6.45052 7.04159 6.44431 7.04442 6.43772C7.08658 6.34138 7.08653 6.34136 7.15586 6.28779L7.07544 6.26897C7.05349 6.22464 7.09634 6.19683 7.10917 6.16138C7.158 6.17321 7.13656 6.12315 7.16085 6.11384C7.17693 6.10579 7.19459 6.10062 7.21285 6.0986C7.21874 6.0986 7.22456 6.1226 7.23469 6.14494C7.26669 6.10517 7.29485 6.07001 7.34088 6.01263L7.25141 6.04383V5.98889C7.29194 5.97308 7.33357 5.95325 7.3496 5.90578C7.3524 5.89748 7.37389 5.89428 7.38674 5.88874L7.40541 5.92916L7.46837 5.90655C7.47109 5.92392 7.47866 5.93967 7.47368 5.94392V5.94394Z" fill="#212121"/>
</svg>
